<mxfile host="app.diagrams.net" modified="2024-05-31T14:27:22.845Z" agent="Mozilla/5.0 (Windows NT 10.0; Win64; x64) AppleWebKit/537.36 (KHTML, like Gecko) Chrome/121.0.0.0 Safari/537.36" etag="3KHzAQZPAzJ-21f1dpVh" version="24.4.13" type="device">
  <diagram name="PÃ¡gina-1" id="aICvx2AepVoI4X7LSClf">
    <mxGraphModel dx="478" dy="260" grid="1" gridSize="10" guides="1" tooltips="1" connect="1" arrows="1" fold="1" page="1" pageScale="1" pageWidth="827" pageHeight="1169" math="0" shadow="0">
      <root>
        <mxCell id="0" />
        <mxCell id="1" parent="0" />
        <mxCell id="3EkNj4FWYhJNI-6UvC9K-1" value="Mascotas" style="rounded=0;whiteSpace=wrap;html=1;" vertex="1" parent="1">
          <mxGeometry x="360" y="265" width="120" height="60" as="geometry" />
        </mxCell>
        <mxCell id="3EkNj4FWYhJNI-6UvC9K-2" value="id_mascota" style="ellipse;whiteSpace=wrap;html=1;fillColor=#dae8fc;strokeColor=#6c8ebf;fontStyle=5" vertex="1" parent="1">
          <mxGeometry x="294" y="170" width="96" height="50" as="geometry" />
        </mxCell>
        <mxCell id="3EkNj4FWYhJNI-6UvC9K-3" value="nombre" style="ellipse;whiteSpace=wrap;html=1;" vertex="1" parent="1">
          <mxGeometry x="414" y="170" width="96" height="50" as="geometry" />
        </mxCell>
        <mxCell id="3EkNj4FWYhJNI-6UvC9K-4" value="fotoURL" style="ellipse;whiteSpace=wrap;html=1;" vertex="1" parent="1">
          <mxGeometry x="520" y="170" width="96" height="50" as="geometry" />
        </mxCell>
        <mxCell id="3EkNj4FWYhJNI-6UvC9K-5" value="likes" style="ellipse;whiteSpace=wrap;html=1;" vertex="1" parent="1">
          <mxGeometry x="520" y="265" width="96" height="50" as="geometry" />
        </mxCell>
        <mxCell id="3EkNj4FWYhJNI-6UvC9K-6" value="descripcion" style="ellipse;whiteSpace=wrap;html=1;" vertex="1" parent="1">
          <mxGeometry x="230" y="260" width="96" height="50" as="geometry" />
        </mxCell>
        <mxCell id="3EkNj4FWYhJNI-6UvC9K-7" value="" style="endArrow=none;html=1;rounded=0;exitX=0.133;exitY=0.039;exitDx=0;exitDy=0;exitPerimeter=0;" edge="1" parent="1" source="3EkNj4FWYhJNI-6UvC9K-1" target="3EkNj4FWYhJNI-6UvC9K-2">
          <mxGeometry width="50" height="50" relative="1" as="geometry">
            <mxPoint x="340" y="290" as="sourcePoint" />
            <mxPoint x="390" y="240" as="targetPoint" />
          </mxGeometry>
        </mxCell>
        <mxCell id="3EkNj4FWYhJNI-6UvC9K-8" value="" style="endArrow=none;html=1;rounded=0;entryX=0.5;entryY=1;entryDx=0;entryDy=0;exitX=0.5;exitY=0;exitDx=0;exitDy=0;" edge="1" parent="1" source="3EkNj4FWYhJNI-6UvC9K-1" target="3EkNj4FWYhJNI-6UvC9K-3">
          <mxGeometry width="50" height="50" relative="1" as="geometry">
            <mxPoint x="420" y="270" as="sourcePoint" />
            <mxPoint x="470" y="220" as="targetPoint" />
          </mxGeometry>
        </mxCell>
        <mxCell id="3EkNj4FWYhJNI-6UvC9K-9" value="" style="endArrow=none;html=1;rounded=0;entryX=0.337;entryY=0.987;entryDx=0;entryDy=0;entryPerimeter=0;exitX=0.942;exitY=0.011;exitDx=0;exitDy=0;exitPerimeter=0;" edge="1" parent="1" source="3EkNj4FWYhJNI-6UvC9K-1" target="3EkNj4FWYhJNI-6UvC9K-4">
          <mxGeometry width="50" height="50" relative="1" as="geometry">
            <mxPoint x="500" y="280" as="sourcePoint" />
            <mxPoint x="550" y="230" as="targetPoint" />
          </mxGeometry>
        </mxCell>
        <mxCell id="3EkNj4FWYhJNI-6UvC9K-10" value="" style="endArrow=none;html=1;rounded=0;entryX=0;entryY=0.5;entryDx=0;entryDy=0;exitX=1;exitY=0.5;exitDx=0;exitDy=0;" edge="1" parent="1" source="3EkNj4FWYhJNI-6UvC9K-1" target="3EkNj4FWYhJNI-6UvC9K-5">
          <mxGeometry width="50" height="50" relative="1" as="geometry">
            <mxPoint x="470" y="370" as="sourcePoint" />
            <mxPoint x="520" y="320" as="targetPoint" />
          </mxGeometry>
        </mxCell>
        <mxCell id="3EkNj4FWYhJNI-6UvC9K-11" value="" style="endArrow=none;html=1;rounded=0;entryX=-0.006;entryY=0.444;entryDx=0;entryDy=0;entryPerimeter=0;exitX=1;exitY=0.5;exitDx=0;exitDy=0;" edge="1" parent="1" source="3EkNj4FWYhJNI-6UvC9K-6" target="3EkNj4FWYhJNI-6UvC9K-1">
          <mxGeometry width="50" height="50" relative="1" as="geometry">
            <mxPoint x="280" y="380" as="sourcePoint" />
            <mxPoint x="330" y="330" as="targetPoint" />
          </mxGeometry>
        </mxCell>
        <mxCell id="3EkNj4FWYhJNI-6UvC9K-12" value="PK" style="text;html=1;align=center;verticalAlign=middle;resizable=0;points=[];autosize=1;strokeColor=none;fillColor=none;" vertex="1" parent="1">
          <mxGeometry x="300" y="218" width="40" height="30" as="geometry" />
        </mxCell>
      </root>
    </mxGraphModel>
  </diagram>
</mxfile>
